<svg xmlns:="http://www.w3.org/2000/svg"
        width="24"
        height="24"
        viewBox="0 0 24 24">
        
    <path
        fill="#FF000000"
        d="M9,14h6v1.5H9z"/>
    <path
        fill="#FF000000"
        d="M15.5,9.5m-1.5,0a1.5,1.5 0,1 1,3 0a1.5,1.5 0,1 1,-3 0"/>
    <path
        fill="#FF000000"
        d="M8.5,9.5m-1.5,0a1.5,1.5 0,1 1,3 0a1.5,1.5 0,1 1,-3 0"/>
    <path
        fill="#FF000000"
        d="M11.99,2C6.47,2 2,6.48 2,12s4.47,10 9.99,10C17.52,22 22,17.52 22,12S17.52,2 11.99,2zM12,20c-4.42,0 -8,-3.58 -8,-8s3.58,-8 8,-8 8,3.58 8,8 -3.58,8 -8,8z"/>
</svg>
